<svg width="24" height="24" viewBox="0 0 24 24" fill="none" xmlns="http://www.w3.org/2000/svg">
<path fill-rule="evenodd" clip-rule="evenodd" d="M23 12C23 18.0751 18.0751 23 12 23C5.92487 23 1 18.0751 1 12C1 5.92487 5.92487 1 12 1C18.0751 1 23 5.92487 23 12ZM3 12C3 16.9705 7.02944 21 12 21C16.9706 21 21 16.9705 21 12C21 7.02939 16.9706 2.99996 12 2.99996C7.02944 2.99996 3 7.02939 3 12ZM8.00001 16.9999V6.99988C8.00001 6.21445 8.86396 5.7356 9.53 6.15188L17.53 11.1519C18.1567 11.5436 18.1567 12.4562 17.53 12.8479L9.53 17.8479C8.86396 18.2642 8.00001 17.7853 8.00001 16.9999ZM10 8.80423L15.1132 12L10 15.1957V8.80423Z" fill="white"/>
</svg>
