<svg width="25" height="25" viewBox="0 0 25 25" fill="none" xmlns="http://www.w3.org/2000/svg">
<path d="M12.9749 22.2919C18.4977 22.2919 22.9749 17.8147 22.9749 12.2919C22.9749 6.76902 18.4977 2.29187 12.9749 2.29187C7.45202 2.29187 2.97487 6.76902 2.97487 12.2919C2.97487 17.8147 7.45202 22.2919 12.9749 22.2919Z" stroke="#3A95FF" stroke-width="2" stroke-linecap="round" stroke-linejoin="round"/>
<path d="M10.0649 9.29183C10.3 8.6235 10.764 8.05994 11.3748 7.70096C11.9856 7.34199 12.7038 7.21077 13.402 7.33054C14.1003 7.45032 14.7337 7.81335 15.1899 8.35536C15.6462 8.89736 15.8959 9.58335 15.8949 10.2918C15.8949 12.2918 12.8949 13.2918 12.8949 13.2918" stroke="#3A95FF" stroke-width="2" stroke-linecap="round" stroke-linejoin="round"/>
<path d="M12.9749 17.2919H12.9849" stroke="#3A95FF" stroke-width="2" stroke-linecap="round" stroke-linejoin="round"/>
</svg>
